HIERARCHY
ROOT hip
{
	OFFSET 0.000000 0.000000 0.000000 
	CHANNELS 6 Xposition Yposition Zposition Xrotation Zrotation Yrotation
	JOINT abdomen
	{
		OFFSET 0.000000 3.402643 0.000000 
		CHANNELS 3 Xrotation Zrotation Yrotation
		JOINT chest
		{
			OFFSET 0.000000 8.438565 -0.680529 
			CHANNELS 3 Xrotation Zrotation Yrotation
			JOINT neck
			{
				OFFSET 0.000000 10.207942 -0.272212 
				CHANNELS 3 Xrotation Zrotation Yrotation
				JOINT head
				{
					OFFSET 0.000000 3.130431 0.000000 
					CHANNELS 3 Xrotation Zrotation Yrotation
					End Site
					{
						OFFSET 0.000000 3.130435 0.000000 
					}
				}
			}
			JOINT lCollar
			{
				OFFSET 3.470700 6.669187 -0.816635 
				CHANNELS 3 Yrotation Zrotation Xrotation
				JOINT lShldr
				{
					OFFSET 3.198488 0.000000 0.000000 
					CHANNELS 3 Zrotation Yrotation Xrotation
					JOINT lForeArm
					{
						OFFSET 10.139888 0.000000 0.000000 
						CHANNELS 3 Yrotation Zrotation Xrotation
						JOINT lHand
						{
							OFFSET 8.370511 0.000000 0.000000 
							CHANNELS 3 Zrotation Yrotation Xrotation
							End Site
							{
								OFFSET 4.083176 0.000000 0.000000 
							}
						}
					}
				}
			}
			JOINT rCollar
			{
				OFFSET -3.470700 6.669187 -0.816635 
				CHANNELS 3 Yrotation Zrotation Xrotation
				JOINT rShldr
				{
					OFFSET -3.198488 0.000000 0.000000 
					CHANNELS 3 Zrotation Yrotation Xrotation
					JOINT rForeArm
					{
						OFFSET -10.139888 0.000000 0.000000 
						CHANNELS 3 Yrotation Zrotation Xrotation
						JOINT rHand
						{
							OFFSET -8.370511 0.000000 0.000000 
							CHANNELS 3 Zrotation Yrotation Xrotation
							End Site
							{
								OFFSET -4.083176 0.000000 0.000000 
							}
						}
					}
				}
			}
		}
	}
	JOINT lThigh
	{
		OFFSET 5.308129 -1.633274 1.361059 
		CHANNELS 3 Xrotation Zrotation Yrotation
		JOINT lShin
		{
			OFFSET -2.041588 -20.007561 0.000000 
			CHANNELS 3 Xrotation Zrotation Yrotation
			JOINT lFoot
			{
				OFFSET 0.000000 -19.190928 -1.224953 
				CHANNELS 3 Xrotation Yrotation Zrotation
				End Site
				{
					OFFSET 0.000000 -2.449906 4.627600 
				}
			}
		}
	}
	JOINT rThigh
	{
		OFFSET -5.308129 -1.633274 1.361059 
		CHANNELS 3 Xrotation Zrotation Yrotation
		JOINT rShin
		{
			OFFSET 2.041588 -20.007561 0.000000 
			CHANNELS 3 Xrotation Zrotation Yrotation
			JOINT rFoot
			{
				OFFSET 0.000000 -19.190928 -1.224953 
				CHANNELS 3 Xrotation Yrotation Zrotation
				End Site
				{
					OFFSET 0.000000 -2.449906 4.627600 
				}
			}
		}
	}
}
MOTION
Frames: 18
Frame Time: 0.016667
-1.233159 41.013756 1.013666 0.390647 -0.605455 -9.418290 -25.145700 0.464460 0.545546 11.786800 -0.453619 0.304351 0.126353 -0.511582 -0.490106 6.993830 4.850540 0.107025 2.000000 -2.000000 0.000000 96.949203 148.606003 -1.155610 33.047199 -0.329447 0.074614 0.046099 0.011881 -129.167999 -2.000000 2.000000 0.000000 -104.057999 -153.320999 8.084170 -31.699600 0.331169 0.071843 -0.054483 0.004544 -135.057007 -8.847067 -8.193223 -24.502510 29.615219 2.761709 2.226156 -27.402311 13.347318 6.763153 -5.055747 11.521369 15.335952 27.116486 -2.756618 -2.058244 -37.414909 -27.521032 -19.802862 
-1.223285 41.217850 1.004182 0.498063 -0.458967 -9.574380 -25.203800 0.503522 0.677497 11.738000 -0.424608 0.378372 -0.072418 -0.022052 -0.764327 6.936680 5.104490 -0.012002 2.000000 -2.000000 0.000000 96.236801 148.679993 -3.596850 31.826500 -0.331010 0.072156 0.046721 0.016046 -127.664001 -2.000000 2.000000 0.000000 -102.679001 -152.955002 5.641870 -30.761999 0.332329 0.069930 -0.054526 0.003369 -134.636993 -9.004791 -8.327657 -24.346350 29.723494 2.751699 2.212215 -27.155573 13.797736 6.977124 -4.418146 11.119815 12.976914 27.025627 -2.775446 -2.044472 -44.143867 -22.054253 -20.124237 
-1.189347 41.122169 0.970369 0.644564 -0.576135 -9.713610 -25.252399 0.548532 0.742142 11.698800 -0.550002 0.417739 -1.077620 -1.009170 -0.952270 6.453660 4.648900 -0.172511 2.000000 -2.000000 0.000000 95.583397 148.862000 -6.135500 30.908501 -0.332150 0.070286 0.047160 0.018607 -126.736000 -2.000000 2.000000 0.000000 -101.438004 -152.923004 2.819510 -28.857700 0.334587 0.065987 -0.054987 -0.003972 -132.009995 -9.176163 -8.198839 -24.315643 29.633663 2.766148 2.207542 -27.058191 13.648004 6.857685 -4.857046 11.353146 15.563366 26.889450 -2.767010 -2.054312 -41.844715 -22.560057 -19.017288 
-1.157241 41.041534 0.955701 0.537128 -0.478495 -9.760430 -25.183701 0.502494 0.785629 11.708500 -0.569316 0.440181 -1.267230 -0.693215 -1.055330 6.405420 4.785770 -0.209867 2.000000 -2.000000 0.000000 -85.283401 30.485201 170.457993 29.863600 -0.333411 0.068135 0.048411 0.024854 -124.460999 -2.000000 2.000000 0.000000 -99.114899 -153.281006 -3.927680 -27.607700 0.335998 0.063359 -0.056336 -0.015101 -128.005997 -9.230806 -8.457643 -24.413937 30.031054 2.725763 2.240205 -27.398596 13.588669 6.930597 -4.953539 11.230618 15.681022 26.416267 -2.768891 -2.013347 -37.056534 -27.154127 -19.274162 
-1.124707 41.017223 0.917564 0.439483 -0.664043 -9.809900 -25.173700 0.537328 0.823075 11.581400 -0.665578 0.466441 -1.756320 -0.996087 -1.206570 6.179170 4.621080 -0.303198 2.000000 -2.000000 0.000000 -85.700996 29.640499 168.384995 28.945601 -0.334486 0.066227 0.048947 0.027200 -123.600998 -2.000000 2.000000 0.000000 82.719398 -26.424999 171.434006 -26.748301 0.336935 0.061535 -0.056984 -0.018930 -126.619003 -9.307471 -8.430274 -24.548819 30.521732 2.736863 2.274229 -27.858877 13.429151 6.929554 -4.858549 11.304382 15.378616 26.139093 -2.784932 -2.001149 -36.111595 -27.775469 -19.057158 
-1.105193 40.984951 0.868284 0.332058 -0.722644 -9.887120 -25.213100 0.565749 0.788020 11.405700 -0.597764 0.447846 -2.416880 -0.941267 -1.276420 5.846150 4.642220 -0.358629 2.000000 -2.000000 0.000000 -86.108803 28.990801 166.169006 28.427999 -0.335079 0.065144 0.049380 0.028980 -122.946999 -2.000000 2.000000 0.000000 84.122597 -25.750601 167.001999 -25.664301 0.338077 0.059214 -0.058170 -0.024827 -124.471001 -9.166037 -8.621122 -25.458500 30.707865 2.737645 2.271486 -28.338928 13.857291 7.275401 -4.816165 11.300465 15.142506 26.021181 -2.778164 -1.981946 -35.126213 -28.677919 -18.999443 
-1.070657 40.988422 0.796239 0.380873 -0.478505 -9.925140 -25.290899 0.491536 0.811928 11.239700 -0.587845 0.447997 -2.782970 -0.556535 -1.379840 5.670530 4.808960 -0.397390 2.000000 -2.000000 0.000000 -86.194603 28.099100 164.832993 27.978800 -0.335585 0.064199 0.049791 0.030597 -122.350998 -2.000000 2.000000 0.000000 85.329399 -24.764200 162.761002 -24.658501 0.339097 0.057042 -0.059399 -0.029988 -122.575996 -9.254892 -8.874910 -25.561972 30.492214 2.733514 2.264028 -28.211115 14.136843 7.416049 -5.081761 10.956255 14.792443 26.169849 -2.767604 -1.987121 -35.107693 -28.187393 -18.666807 
-1.039438 40.993824 0.736062 0.449231 -0.429674 -10.042500 -25.291500 0.569546 0.742788 11.327900 -0.395208 0.415774 -3.168360 -0.317492 -1.324460 5.484910 4.946430 -0.370404 2.000000 -2.000000 0.000000 -86.414902 26.316000 162.350998 26.670200 -0.337019 0.061426 0.051812 0.037698 -119.714996 -2.000000 2.000000 0.000000 85.794601 -23.459600 160.186005 -23.545200 0.340182 0.054617 -0.060639 -0.034554 -120.887001 -9.276808 -8.914032 -25.712738 30.287453 2.715752 2.253033 -28.507727 13.698406 7.251073 -5.257418 10.874515 14.926656 26.239502 -2.765923 -2.005160 -35.720787 -27.941769 -18.940502 
-0.996835 40.976974 0.677991 0.234378 -0.283201 -9.796130 -25.203699 0.410283 0.678335 11.357100 -0.482001 0.371028 -3.093070 -0.393582 -1.433790 5.514110 4.897500 -0.417974 2.000000 -2.000000 0.000000 -86.097801 24.201000 159.845993 25.312799 -0.338438 0.058514 0.054598 0.045906 -116.619003 -2.000000 2.000000 0.000000 85.909401 -22.099701 159.085007 -22.500299 0.341157 0.052322 -0.062205 -0.039679 -118.973000 -9.204622 -9.013686 -25.156584 30.200296 2.707729 2.262090 -27.945152 13.703087 7.101202 -5.167700 10.647290 14.901280 26.443048 -2.788276 -1.997264 -36.572006 -27.338472 -19.102726 
-0.972707 40.999477 0.592957 0.410159 -0.205073 -9.933140 -25.330200 0.362073 0.743855 11.181200 -0.529935 0.399991 -2.805030 -0.320788 -1.509960 5.621880 4.887270 -0.448137 2.000000 -2.000000 0.000000 -85.284798 22.412399 159.167007 24.853800 -0.338902 0.057523 0.056366 0.050470 -114.871002 -2.000000 2.000000 0.000000 85.702797 -20.634501 158.945999 -21.562700 0.341996 0.050248 -0.064250 -0.045598 -116.736000 -9.420729 -9.178482 -25.834667 30.171511 2.690297 2.238609 -28.187981 14.075253 7.427132 -5.483799 10.556282 14.682639 26.230679 -2.759782 -2.014140 -35.014450 -28.593237 -18.889458 
-0.954596 40.976334 0.524818 0.527377 -0.644504 -10.211100 -25.408701 0.623698 0.748773 11.122700 -0.452777 0.426791 -2.631640 -0.397321 -1.624180 5.651280 4.887140 -0.514001 2.000000 -2.000000 0.000000 -84.647697 20.672501 158.460999 24.609600 -0.339146 0.056993 0.058086 0.054553 -113.289001 -2.000000 2.000000 0.000000 84.910599 -18.955500 159.233002 -20.859600 0.342603 0.048684 -0.066307 -0.050901 -114.705002 -9.676141 -8.793875 -25.945528 30.466448 2.697761 2.274695 -28.879282 13.800679 7.467472 -5.476964 11.092580 15.463236 25.603024 -2.738338 -1.979746 -33.822552 -29.903597 -18.936386 
-0.931905 41.000126 0.461901 0.595769 -0.849563 -10.184800 -25.331699 0.728855 0.613367 11.406100 -0.376013 0.373066 -1.822530 0.102170 -1.596380 6.025180 5.168400 -0.453011 2.000000 -2.000000 0.000000 -83.845596 18.827400 158.718994 24.883101 -0.338873 0.057586 0.059593 0.057893 -111.980003 -2.000000 2.000000 0.000000 83.854599 -16.739500 159.608994 -20.224800 0.343135 0.047266 -0.067818 -0.054478 -113.318001 -9.850992 -8.477209 -25.474087 30.475901 2.702118 2.275712 -28.595707 13.667460 7.324740 -5.443088 11.258717 15.556323 25.487253 -2.717918 -1.977165 -34.663536 -28.754372 -18.861923 
-0.868818 41.009003 0.407934 0.556647 -0.273425 -10.344500 -25.350201 0.448853 0.670421 11.532800 -0.511173 0.364378 -1.556980 -0.173350 -1.611390 6.102850 5.021600 -0.480563 2.000000 -2.000000 0.000000 -82.251999 16.171499 158.889999 24.131100 -0.339617 0.055953 0.060767 0.060363 -111.003998 -2.000000 2.000000 0.000000 82.945396 -14.504600 160.238998 -19.882999 0.343414 0.046500 -0.068652 -0.056352 -112.585999 -9.634191 -9.309960 -26.513369 30.094236 2.686074 2.258296 -28.974072 14.459887 7.871737 -5.822347 10.545803 15.275291 25.909193 -2.727087 -1.992442 -34.493347 -28.351959 -18.462391 
-0.834226 40.994083 0.325413 0.273456 -0.673820 -10.208400 -25.370199 0.468944 0.585440 11.239500 -0.722760 0.343175 -0.990688 -0.311566 -1.752150 6.308380 4.961940 -0.552831 2.000000 -2.000000 0.000000 -80.561996 13.791200 160.009003 24.101801 -0.339646 0.055890 0.061614 0.062079 -110.320000 -2.000000 2.000000 0.000000 81.656097 -12.085600 161.524002 -19.306900 0.343875 0.045205 -0.068923 -0.056949 -112.351997 -9.426619 -8.991879 -26.636978 30.248842 2.703593 2.240791 -29.327049 14.225339 7.826622 -5.560503 10.980850 15.321325 26.094646 -2.745694 -2.013122 -34.696365 -27.940767 -18.319700 
-0.800998 41.032661 0.214753 0.908222 -0.371047 -11.890700 -25.610500 0.720749 1.229560 11.308000 -0.636153 0.787174 -0.548227 0.027449 -1.633080 6.475820 5.097600 -0.473190 2.000000 -2.000000 0.000000 -79.065300 10.673200 158.785004 23.388901 -0.340331 0.054333 0.065920 0.070102 -107.068001 -2.000000 2.000000 0.000000 80.580597 -9.575530 161.382996 -19.433800 0.343775 0.045490 -0.070342 -0.059969 -111.160004 -10.031808 -9.113419 -26.087688 29.919008 2.666850 2.246461 -29.875172 14.712205 8.416408 -6.516687 10.545249 15.594367 25.863430 -2.705171 -2.017589 -32.693214 -27.848921 -17.010542 
-0.793195 41.032661 0.132480 0.703137 -0.332006 -11.957300 -25.442600 0.594641 1.419620 11.483300 -0.867911 0.861237 0.052670 -0.029435 -1.859750 6.789310 5.056670 -0.574263 2.000000 -2.000000 0.000000 -76.809601 7.493140 160.363998 23.252199 -0.340460 0.054033 0.067175 0.072251 -106.180000 -2.000000 2.000000 0.000000 79.261703 -6.705410 161.820007 -19.648701 0.343603 0.045974 -0.070857 -0.061026 -110.739998 -9.840307 -9.170361 -26.126703 29.751850 2.673810 2.250999 -29.862396 15.039266 8.626550 -6.454227 10.530191 15.829559 25.997612 -2.730211 -2.001509 -33.056236 -28.371075 -17.494123 
-0.761453 41.020058 0.067465 0.459002 -0.507796 -11.078400 -25.357401 0.429109 1.088950 11.551400 -0.974173 0.681698 0.757271 -0.346380 -2.025960 7.082300 4.888970 -0.664712 2.000000 -2.000000 0.000000 -74.728996 3.734400 160.822006 22.783501 -0.340897 0.053004 0.068421 0.074310 -105.320000 -2.000000 2.000000 0.000000 77.416397 -3.886560 163.320999 -19.892799 0.343406 0.046522 -0.070857 -0.061026 -110.739998 -9.771657 -9.044293 -26.269176 29.857670 2.693377 2.244483 -29.426292 14.772526 8.249394 -6.157500 10.890566 16.353971 26.046690 -2.734174 -2.011384 -34.660099 -28.379631 -18.535795 
-0.752939 41.040379 -0.012051 0.341827 -0.761705 -11.176500 -25.250700 0.542494 1.003250 11.786100 -0.849328 0.648594 1.901460 0.029667 -1.852550 7.603220 5.080270 -0.549865 2.000000 -2.000000 0.000000 -72.541702 -0.072908 161.397003 22.529600 -0.341130 0.052445 0.070704 0.077913 -103.796997 -2.000000 2.000000 0.000000 75.151802 -0.443742 165.263000 -19.951401 0.343359 0.046653 -0.071404 -0.062128 -110.301003 -9.696261 -8.884931 -26.647701 30.013163 2.704782 2.235100 -30.099237 15.112588 8.680605 -5.771976 11.122078 16.575378 25.978975 -2.724063 -2.010146 -36.343235 -26.428122 -18.370352 
